<?xml version="1.0" encoding="UTF-8"?>
<svg id="Layer_2" data-name="Layer 2" xmlns="http://www.w3.org/2000/svg" viewBox="0 0 714.99 552.76">
  <defs>
    <style>
      .cls-1 {
        fill: #fff;
      }

      .cls-1, .cls-2 {
        stroke: #000;
        stroke-width: 4px;
      }

      .cls-2 {
        fill: none;
      }
    </style>
  </defs>
  <g id="Layer_1-2" data-name="Layer 1">
    <path class="cls-1" d="M712.45,351.28c-7.6-105.5-109.6-191.86-202.45-199.06-11.38-.88-20.89-.44-27.37.11,4.09,24.19,15.56,109.86-36.71,174.93-22.15,27.58-49.65,43.86-65.95,53.51-46.53,27.55-90.71,36.88-118.29,40.47,11.11,16.03,89.3,125.09,217.98,129.1,42.78,1.34,78.47-9.33,103.46-19.9l129.32,19.9-20.69-99.53c21.51-44.15,22.07-80.35,20.69-99.53ZM479.73,363.17c-6.42,0-11.62-5.32-11.62-11.88s5.2-11.88,11.62-11.88,11.62,5.32,11.62,11.88-5.21,11.88-11.62,11.88ZM621.15,363.17c-6.42,0-11.62-5.32-11.62-11.88s5.2-11.88,11.62-11.88,11.61,5.32,11.61,11.88-5.2,11.88-11.61,11.88Z"/>
    <path class="cls-1" d="M338.31,363.17c-6.42,0-11.62-5.32-11.62-11.88s5.2-11.88,11.62-11.88,11.62,5.32,11.62,11.88-5.2,11.88-11.62,11.88Z"/>
    <path class="cls-1" d="M235.33,2C106.78,2,2.54,91.13,2.54,201.06c-1.15,34.27,5.93,68.33,20.69,99.53L2.54,400.12l129.32-19.91c32.65,13.56,67.9,20.35,103.46,19.91,128.55,0,232.78-89.13,232.78-199.06S363.88,2,235.33,2ZM93.85,212.95c-6.42,0-11.62-5.32-11.62-11.88s5.2-11.88,11.62-11.88,11.62,5.32,11.62,11.88-5.2,11.88-11.62,11.88ZM235.27,212.95c-6.42,0-11.62-5.32-11.62-11.88s5.2-11.88,11.62-11.88,11.62,5.32,11.62,11.88-5.2,11.88-11.62,11.88ZM376.69,212.95c-6.42,0-11.62-5.32-11.62-11.88s5.2-11.88,11.62-11.88,11.62,5.32,11.62,11.88-5.2,11.88-11.62,11.88Z"/>
    <path class="cls-2" d="M472.13,152.33s-.03-.07-.04-.11"/>
  </g>
</svg>