<?xml version="1.0" encoding="UTF-8"?>
<svg id="Layer_2" data-name="Layer 2" xmlns="http://www.w3.org/2000/svg" viewBox="0 0 451.04 293.1">
  <defs>
    <style>
      .cls-1 {
        fill: #d4af34;
      }

      .cls-2 {
        fill: #f9cc15;
      }

      .cls-3 {
        fill: #f3c853;
      }
    </style>
  </defs>
  <g id="Layer_1-2" data-name="Layer 1">
    <g id="Generative_Object" data-name="Generative Object">
      <g>
        <path class="cls-2" d="M223.69.08c22.71-1.81,29.38,29.43,8.45,37.5l69.14,146.73,114.22-72.17c-9.71-17.51,10.04-35.82,27.09-25.36,14.77,9.06,9.01,33.52-8.24,35.11-2,.18-7.59-1.15-8.45-.22l-48.77,131.56-301.69.43-2.38-1.52L25.16,121.01c-19.87,6.25-34.38-19.89-18.21-32.94,16.35-13.19,39.18,5.7,28.83,24.06l114.22,72.17L219.14,38.44c-2.19-3.04-6.54-4.16-9.1-7.8-8.11-11.53-.95-29.4,13.65-30.56Z"/>
        <path class="cls-2" d="M225.42,40.39l69.57,146.73c1.32,2.01,1.71,4.34,4.12,5.42l121.15-74.34-47.03,128.52-295.41-.22L31.45,117.76l120.72,74.77,3.68-4.55L225.42,40.39Z"/>
        <path class="cls-2" d="M224.12,6.58c19.66-1.83,18.01,29.68-1.73,25.14-13.03-2.99-11.74-23.89,1.73-25.14Z"/>
        <path class="cls-2" d="M430.02,90.24c17.19-2.23,19.48,23.4,3.9,25.14-17.12,1.92-19.18-23.15-3.9-25.14Z"/>
        <path class="cls-2" d="M17.36,90.24c17.36-1.95,19.11,23.54,3.47,25.14-17.1,1.75-18.66-23.44-3.47-25.14Z"/>
      </g>
      <g>
        <path class="cls-3" d="M60.27,257.12h330.74c.53.71,1.68,1.01,1.95,1.95,1.99,6.94-1.5,24.45,0,32.51l-1.95,1.52H60.27c-.4-.12-1.87-1.68-1.95-1.95-.44-1.54-.46-30.54,0-32.08.11-.38,1.62-1.43,1.95-1.95Z"/>
        <polygon class="cls-3" points="65.47 263.62 386.24 263.62 386.46 286.38 65.04 286.6 65.47 263.62"/>
      </g>
      <g>
        <path class="cls-1" d="M341.59,55.13c27.11-3.16,29.72,37.06,2.38,38.36v59.39c-4.99,3.07-37.18,25.5-40.1,25.36-2.26-.11-5.2-7.2-6.29-9.32-1.28-2.5-9.81-20.07-9.97-21.24-.1-.7.07-1.46,0-2.17l42.91-57.65c-9.61-11.23-4.32-30.94,11.05-32.73Z"/>
        <polygon class="cls-1" points="336.39 91.1 337.48 92.19 337.48 149.41 305.62 170 294.56 146.8 336.39 91.1"/>
        <path class="cls-1" d="M342.03,61.63c17.55-2.61,19.63,22.5,5.2,24.71-18.01,2.76-19.84-22.53-5.2-24.71Z"/>
      </g>
      <g>
        <path class="cls-1" d="M104.05,55.13c18.85-2.11,27.94,18.7,16.69,32.73l42.91,57.22c-.08.85.12,1.77,0,2.6-.22,1.47-11.18,24.54-12.57,26.88-2.16,3.61-2.44,4.09-6.72,2.38l-37.06-24.06v-59.39c-4.54-1.23-8.49-1.6-12.35-4.55-12.9-9.85-7.01-32.01,9.1-33.81Z"/>
        <polygon class="cls-1" points="114.46 91.1 156.72 146.8 146.1 169.56 113.81 149.41 114.46 91.1"/>
        <path class="cls-1" d="M104.49,61.63c17.4-2.46,19.17,22.34,5.2,24.71-17.96,3.04-20.41-22.56-5.2-24.71Z"/>
      </g>
    </g>
  </g>
</svg>